<?xml version="1.0" encoding="utf-8"?>
<!-- Generator: Adobe Illustrator 18.1.1, SVG Export Plug-In . SVG Version: 6.00 Build 0)  -->
<!DOCTYPE svg PUBLIC "-//W3C//DTD SVG 1.1//EN" "http://www.w3.org/Graphics/SVG/1.1/DTD/svg11.dtd">
<svg version="1.1" id="Layer_1" xmlns="http://www.w3.org/2000/svg" xmlns:xlink="http://www.w3.org/1999/xlink" x="0px" y="0px"
	 viewBox="0 0 80 112" enable-background="new 0 0 80 112" xml:space="preserve">
<g>
	<g>
		<path fill="#FFFFFF" d="M70,110H10c-4.4,0-8-3.6-8-8V10c0-4.4,3.6-8,8-8h48l20,20v80C78,106.4,74.4,110,70,110z"/>
		<path fill="#F7931E" d="M70,112H10c-5.5,0-10-4.5-10-10V10C0,4.5,4.5,0,10,0h48c0.5,0,1,0.2,1.4,0.6l20,20C79.8,21,80,21.5,80,22
			v80C80,107.5,75.5,112,70,112z M10,4c-3.3,0-6,2.7-6,6v92c0,3.3,2.7,6,6,6h60c3.3,0,6-2.7,6-6V22.8L57.2,4H10z"/>
	</g>
	<g>
		<path fill="#F7931E" d="M78,22L58,2v12c0,4.4,3.6,8,8,8H78z"/>
		<path fill="#F7931E" d="M78,24H66c-5.5,0-10-4.5-10-10V2c0-0.8,0.5-1.5,1.2-1.8C58-0.2,58.8,0,59.4,0.6l20,20
			c0.6,0.6,0.7,1.4,0.4,2.2C79.5,23.5,78.8,24,78,24z M60,6.8V14c0,3.3,2.7,6,6,6h7.2L60,6.8z"/>
	</g>
	<g>
		<path fill="#F7931E" d="M28.5,98.3c0-0.7,0.2-1.2,0.5-1.5s0.9-0.5,1.5-0.5c0.6,0,1.2,0.2,1.5,0.5s0.5,0.8,0.5,1.5
			c0,0.6-0.2,1.1-0.5,1.5s-0.9,0.5-1.5,0.5c-0.7,0-1.2-0.2-1.5-0.5S28.5,99,28.5,98.3z"/>
		<path fill="#F7931E" d="M41.9,100.2c-1.5,0-2.7-0.6-3.6-1.7h-0.2c0.1,1.1,0.2,1.7,0.2,1.9v5.3h-3.6V86.9h2.9l0.5,1.7h0.2
			c0.8-1.3,2.1-1.9,3.7-1.9c1.5,0,2.8,0.6,3.6,1.8s1.3,2.9,1.3,5c0,1.4-0.2,2.6-0.6,3.6s-1,1.8-1.8,2.4S42.9,100.2,41.9,100.2z
			 M40.8,89.5c-0.9,0-1.5,0.3-1.9,0.8s-0.6,1.4-0.6,2.7v0.4c0,1.4,0.2,2.4,0.6,3s1.1,0.9,2,0.9c1.6,0,2.4-1.3,2.4-4
			c0-1.3-0.2-2.3-0.6-2.9S41.7,89.5,40.8,89.5z"/>
		<path fill="#F7931E" d="M55.8,100.2c-1.5,0-2.7-0.6-3.6-1.7H52c0.1,1.1,0.2,1.7,0.2,1.9v5.3h-3.6V86.9h2.9l0.5,1.7h0.2
			c0.8-1.3,2.1-1.9,3.7-1.9c1.5,0,2.8,0.6,3.6,1.8s1.3,2.9,1.3,5c0,1.4-0.2,2.6-0.6,3.6s-1,1.8-1.8,2.4S56.8,100.2,55.8,100.2z
			 M54.7,89.5c-0.9,0-1.5,0.3-1.9,0.8s-0.6,1.4-0.6,2.7v0.4c0,1.4,0.2,2.4,0.6,3s1.1,0.9,2,0.9c1.6,0,2.4-1.3,2.4-4
			c0-1.3-0.2-2.3-0.6-2.9S55.6,89.5,54.7,89.5z"/>
		<path fill="#F7931E" d="M68,97.4c0.6,0,1.4-0.1,2.2-0.4v2.7c-0.9,0.4-2,0.6-3.3,0.6c-1.4,0-2.5-0.4-3.1-1.1s-1-1.8-1-3.3v-6.3
			h-1.7v-1.5l2-1.2l1-2.8h2.3v2.8h3.7v2.7h-3.7v6.3c0,0.5,0.1,0.9,0.4,1.1S67.5,97.4,68,97.4z"/>
	</g>
	<path fill="#BBBBBB" d="M68,38H30c-1.1,0-2-0.9-2-2s0.9-2,2-2h38c1.1,0,2,0.9,2,2S69.1,38,68,38z"/>
	<path fill="#BBBBBB" d="M68,56H30c-1.1,0-2-0.9-2-2s0.9-2,2-2h38c1.1,0,2,0.9,2,2S69.1,56,68,56z"/>
	<path fill="#BBBBBB" d="M68,74H30c-1.1,0-2-0.9-2-2s0.9-2,2-2h38c1.1,0,2,0.9,2,2S69.1,74,68,74z"/>
	<g>
		<circle fill="#BBBBBB" cx="16" cy="36" r="6"/>
	</g>
	<g>
		<circle fill="#BBBBBB" cx="16" cy="54" r="6"/>
	</g>
	<g>
		<circle fill="#BBBBBB" cx="16" cy="72" r="6"/>
	</g>
</g>
</svg>
