<svg xmlns="http://www.w3.org/2000/svg" width="237.62" height="201.08" viewBox="0 0 237.62 201.08"><title>Asset 6</title><path d="M101.62,186" style="fill:#01579b"/><path d="M24.47,186" style="fill:#01579b"/><path d="M102.56,186a10.12,10.12,0,0,0,10.16-10.16V83.39a10.12,10.12,0,0,0-10.16-10.16H10.16A10.12,10.12,0,0,0,0,83.39v92.4A10.12,10.12,0,0,0,10.16,186Z" style="fill:#01579b"/><path d="M136.15,151.68V60.51a12.91,12.91,0,0,0-13-13H69.89c12.48,2.4,42.25,9.6,42.25,24.73,0,14.61-29.24,30.25-42.66,49.31l-6,6.5c-3,4.2-4.94,8.62-5.14,13.29-.94,18.44,14.68,32.18,46.3,41.4h.94a10.12,10.12,0,0,0,10.16-10.16V151.68Z" style="fill:#4fc3f7"/><path d="M56.36,95.88c6.17-3.16,11.86-5.57,17.16-8.07,19.45-9.12,45.54-22-10.67-40.27h-15L42.29,70.06H13.18A10.12,10.12,0,0,0,3,80.22v92.4a10.12,10.12,0,0,0,10.16,10.16h14.3c-6.77-6.4-17.5-20.14-10.73-40.84,5.07-15.62,19-25,32.25-31.86Z" style="fill:#4fc3f7"/><path d="M56.44,98.62l.4-.21" style="fill:#4fc3f7"/><path d="M67.36,124.91c12.1-20.58,44.78-37.18,44.78-52.64,0-15.13-29.77-22.33-42.25-24.73H61.73c61.94,19,26.65,33.37,7,42.49-5.36,2.55-11.53,5.34-17.84,8.59l-2,11.47-.3.15c-13.13,6.8-27,16.2-32,31.69-6.59,20.7,4.14,34.63,10.92,40.84h77.16c-31.8-9.22-47.24-23-46.3-41.4a23.11,23.11,0,0,1,3.47-10.68Z" style="fill:#01579b"/><path d="M62.32,129.8" style="fill:#01579b"/><path d="M116.61,12.93a69.48,69.48,0,1,0,45.16,122.23l7.54-7.59a69.39,69.39,0,0,0-52.7-114.64Z" style="fill:none;stroke:#90a4ae;stroke-miterlimit:10;stroke-width:16px"/><path d="M181.05,147.55c-2.35-3.91.52-9.32,2.22-14.79l-1-1h-8.5l-7.54,7.59v8.44l53.44,53.34,15.64-15.64C210.71,186.9,193.91,166.84,181.05,147.55Z" style="fill:#90a4ae"/><path d="M185.32,130.34l-1-1h-8.5l-7.54,7.59v8.44l53.44,53.34L237.34,183" style="fill:#37474f"/><path d="M183.11,145.13C196,164.42,212.76,184.49,237.34,183l.11-.11h0l.17-.17-52.3-52.4C183.63,135.82,180.76,141.22,183.11,145.13Z" style="fill:#455a64"/><path d="M119.07,8a69.48,69.48,0,1,0,45.16,122.23l7.54-7.59A69.39,69.39,0,0,0,119.07,8Z" style="fill:none;stroke:#cfd8dc;stroke-miterlimit:10;stroke-width:16px"/></svg>